<svg width="162" height="60" viewBox="0 0 162 60" fill="none" xmlns="http://www.w3.org/2000/svg">
<path d="M86.875 20.2614C86.6932 18.6477 85.9432 17.3977 84.625 16.5114C83.3068 15.6136 81.6477 15.1648 79.6477 15.1648C78.2159 15.1648 76.9773 15.392 75.9318 15.8466C74.8864 16.2898 74.0739 16.9034 73.4943 17.6875C72.9261 18.4602 72.642 19.3409 72.642 20.3295C72.642 21.1591 72.8352 21.875 73.2216 22.4773C73.6193 23.0795 74.1364 23.5852 74.7727 23.9943C75.4205 24.392 76.1136 24.7273 76.8523 25C77.5909 25.2614 78.3011 25.4773 78.983 25.6477L82.392 26.5341C83.5057 26.8068 84.6477 27.1761 85.8182 27.642C86.9886 28.108 88.0739 28.7216 89.0739 29.483C90.0739 30.2443 90.8807 31.1875 91.4943 32.3125C92.1193 33.4375 92.4318 34.7841 92.4318 36.3523C92.4318 38.3295 91.9205 40.0852 90.8977 41.6193C89.8864 43.1534 88.4148 44.3636 86.483 45.25C84.5625 46.1364 82.2386 46.5795 79.5114 46.5795C76.8977 46.5795 74.6364 46.1648 72.7273 45.3352C70.8182 44.5057 69.3239 43.3295 68.2443 41.8068C67.1648 40.2727 66.5682 38.4545 66.4545 36.3523H71.7386C71.8409 37.6136 72.25 38.6648 72.9659 39.5057C73.6932 40.3352 74.6193 40.9545 75.7443 41.3636C76.8807 41.7614 78.125 41.9602 79.4773 41.9602C80.9659 41.9602 82.2898 41.7273 83.4489 41.2614C84.6193 40.7841 85.5398 40.125 86.2102 39.2841C86.8807 38.4318 87.2159 37.4375 87.2159 36.3011C87.2159 35.267 86.9205 34.4205 86.3295 33.7614C85.75 33.1023 84.9602 32.5568 83.9602 32.125C82.9716 31.6932 81.8523 31.3125 80.6023 30.983L76.4773 29.858C73.6818 29.0966 71.4659 27.9773 69.8295 26.5C68.2045 25.0227 67.392 23.0682 67.392 20.6364C67.392 18.625 67.9375 16.8693 69.0284 15.3693C70.1193 13.8693 71.5966 12.7045 73.4602 11.875C75.3239 11.0341 77.4261 10.6136 79.767 10.6136C82.1307 10.6136 84.2159 11.0284 86.0227 11.858C87.8409 12.6875 89.2727 13.8295 90.3182 15.2841C91.3636 16.7273 91.9091 18.3864 91.9545 20.2614H86.875ZM122.351 22.1193C122.021 21.0852 121.578 20.1591 121.021 19.3409C120.476 18.5114 119.822 17.8068 119.061 17.2273C118.3 16.6364 117.43 16.1875 116.453 15.8807C115.487 15.5739 114.425 15.4205 113.266 15.4205C111.3 15.4205 109.527 15.9261 107.947 16.9375C106.368 17.9489 105.118 19.4318 104.197 21.3864C103.288 23.3295 102.834 25.7102 102.834 28.5284C102.834 31.358 103.294 33.75 104.214 35.7045C105.135 37.6591 106.396 39.142 107.999 40.1534C109.601 41.1648 111.425 41.6705 113.47 41.6705C115.368 41.6705 117.021 41.2841 118.43 40.5114C119.851 39.7386 120.947 38.6477 121.72 37.2386C122.504 35.8182 122.896 34.1477 122.896 32.2273L124.26 32.483H114.271V28.1364H127.993V32.108C127.993 35.0398 127.368 37.5852 126.118 39.7443C124.879 41.892 123.163 43.5511 120.97 44.7216C118.788 45.892 116.288 46.4773 113.47 46.4773C110.311 46.4773 107.538 45.75 105.152 44.2955C102.777 42.8409 100.925 40.7784 99.5952 38.108C98.2656 35.4261 97.6009 32.2443 97.6009 28.5625C97.6009 25.7784 97.9872 23.2784 98.7599 21.0625C99.5327 18.8466 100.618 16.9659 102.016 15.4205C103.425 13.8636 105.078 12.6761 106.976 11.858C108.885 11.0284 110.97 10.6136 113.232 10.6136C115.118 10.6136 116.874 10.892 118.499 11.4489C120.135 12.0057 121.589 12.7955 122.862 13.8182C124.146 14.8409 125.209 16.0568 126.05 17.4659C126.891 18.8636 127.459 20.4148 127.754 22.1193H122.351ZM153.719 20.2614C153.537 18.6477 152.787 17.3977 151.469 16.5114C150.151 15.6136 148.491 15.1648 146.491 15.1648C145.06 15.1648 143.821 15.392 142.776 15.8466C141.73 16.2898 140.918 16.9034 140.338 17.6875C139.77 18.4602 139.486 19.3409 139.486 20.3295C139.486 21.1591 139.679 21.875 140.065 22.4773C140.463 23.0795 140.98 23.5852 141.616 23.9943C142.264 24.392 142.957 24.7273 143.696 25C144.435 25.2614 145.145 25.4773 145.827 25.6477L149.236 26.5341C150.349 26.8068 151.491 27.1761 152.662 27.642C153.832 28.108 154.918 28.7216 155.918 29.483C156.918 30.2443 157.724 31.1875 158.338 32.3125C158.963 33.4375 159.276 34.7841 159.276 36.3523C159.276 38.3295 158.764 40.0852 157.741 41.6193C156.73 43.1534 155.259 44.3636 153.327 45.25C151.406 46.1364 149.082 46.5795 146.355 46.5795C143.741 46.5795 141.48 46.1648 139.571 45.3352C137.662 44.5057 136.168 43.3295 135.088 41.8068C134.009 40.2727 133.412 38.4545 133.298 36.3523H138.582C138.685 37.6136 139.094 38.6648 139.81 39.5057C140.537 40.3352 141.463 40.9545 142.588 41.3636C143.724 41.7614 144.969 41.9602 146.321 41.9602C147.81 41.9602 149.134 41.7273 150.293 41.2614C151.463 40.7841 152.384 40.125 153.054 39.2841C153.724 38.4318 154.06 37.4375 154.06 36.3011C154.06 35.267 153.764 34.4205 153.173 33.7614C152.594 33.1023 151.804 32.5568 150.804 32.125C149.815 31.6932 148.696 31.3125 147.446 30.983L143.321 29.858C140.526 29.0966 138.31 27.9773 136.673 26.5C135.048 25.0227 134.236 23.0682 134.236 20.6364C134.236 18.625 134.781 16.8693 135.872 15.3693C136.963 13.8693 138.44 12.7045 140.304 11.875C142.168 11.0341 144.27 10.6136 146.611 10.6136C148.974 10.6136 151.06 11.0284 152.866 11.858C154.685 12.6875 156.116 13.8295 157.162 15.2841C158.207 16.7273 158.753 18.3864 158.798 20.2614H153.719Z" fill="black"/>
<rect y="4.15414" width="5.53886" height="55.3886" rx="2.76943" fill="#F1768A"/>
<rect x="22.1555" y="4.15414" width="5.53886" height="55.3886" rx="2.76943" fill="#F1768A"/>
<rect x="44.3109" y="4.15414" width="5.53886" height="55.3886" rx="2.76943" fill="#F1768A"/>
<rect x="11.0777" width="5.53886" height="55.3886" rx="2.76943" fill="#1E2772"/>
<rect x="33.2332" width="5.53886" height="55.3886" rx="2.76943" fill="#1E2772"/>
</svg>
